<svg xmlns="http://www.w3.org/2000/svg" xmlns:xlink="http://www.w3.org/1999/xlink" width="192" zoomAndPan="magnify" viewBox="0 0 144 160.499995" height="214" preserveAspectRatio="xMidYMid meet" version="1.0"><defs><g/><clipPath id="05c770cab5"><path d="M 0.222656 0 L 143.777344 0 L 143.777344 160 L 0.222656 160 Z M 0.222656 0 " clip-rule="nonzero"/></clipPath><clipPath id="5ceb5fa40a"><path d="M 0.222656 6.253906 L 143.777344 6.253906 L 143.777344 149.804688 L 0.222656 149.804688 Z M 0.222656 6.253906 " clip-rule="nonzero"/></clipPath><clipPath id="f98cc03963"><path d="M 72 6.253906 C 32.359375 6.253906 0.222656 38.386719 0.222656 78.03125 C 0.222656 117.671875 32.359375 149.804688 72 149.804688 C 111.640625 149.804688 143.777344 117.671875 143.777344 78.03125 C 143.777344 38.386719 111.640625 6.253906 72 6.253906 Z M 72 6.253906 " clip-rule="nonzero"/></clipPath><clipPath id="c33b84bfbc"><path d="M 0.222656 0.253906 L 143.777344 0.253906 L 143.777344 143.804688 L 0.222656 143.804688 Z M 0.222656 0.253906 " clip-rule="nonzero"/></clipPath><clipPath id="5f8b730477"><path d="M 72 0.253906 C 32.359375 0.253906 0.222656 32.386719 0.222656 72.03125 C 0.222656 111.671875 32.359375 143.804688 72 143.804688 C 111.640625 143.804688 143.777344 111.671875 143.777344 72.03125 C 143.777344 32.386719 111.640625 0.253906 72 0.253906 Z M 72 0.253906 " clip-rule="nonzero"/></clipPath><clipPath id="baefdb52ec"><rect x="0" width="144" y="0" height="144"/></clipPath><clipPath id="ececd2926f"><path d="M 10.464844 16.832031 L 133.527344 16.832031 L 133.527344 139.894531 L 10.464844 139.894531 Z M 10.464844 16.832031 " clip-rule="nonzero"/></clipPath><clipPath id="1eefb23e0a"><path d="M 71.996094 16.832031 C 38.015625 16.832031 10.464844 44.378906 10.464844 78.363281 C 10.464844 112.34375 38.015625 139.894531 71.996094 139.894531 C 105.980469 139.894531 133.527344 112.34375 133.527344 78.363281 C 133.527344 44.378906 105.980469 16.832031 71.996094 16.832031 Z M 71.996094 16.832031 " clip-rule="nonzero"/></clipPath><clipPath id="401d1db4aa"><rect x="0" width="50" y="0" height="105"/></clipPath></defs><g clip-path="url(#05c770cab5)"><path fill="#ffffff" d="M 0.222656 0 L 143.777344 0 L 143.777344 160 L 0.222656 160 Z M 0.222656 0 " fill-opacity="1" fill-rule="nonzero"/></g><g clip-path="url(#5ceb5fa40a)"><g clip-path="url(#f98cc03963)"><g transform="matrix(1, 0, 0, 1, 0, 6)"><g clip-path="url(#baefdb52ec)"><g clip-path="url(#c33b84bfbc)"><g clip-path="url(#5f8b730477)"><path fill="#152ca8" d="M 0.222656 0.253906 L 143.777344 0.253906 L 143.777344 143.804688 L 0.222656 143.804688 Z M 0.222656 0.253906 " fill-opacity="1" fill-rule="nonzero"/></g></g></g></g></g></g><g clip-path="url(#ececd2926f)"><g clip-path="url(#1eefb23e0a)"><path stroke-linecap="butt" transform="matrix(0.747671, 0, 0, 0.747671, 10.466694, 16.830764)" fill="none" stroke-linejoin="miter" d="M 82.294779 0.00169471 C 36.84634 0.00169471 -0.00247473 36.845285 -0.00247473 82.298949 C -0.00247473 127.747388 36.84634 164.596203 82.294779 164.596203 C 127.748443 164.596203 164.592034 127.747388 164.592034 82.298949 C 164.592034 36.845285 127.748443 0.00169471 82.294779 0.00169471 Z M 82.294779 0.00169471 " stroke="#ffffff" stroke-width="8" stroke-opacity="1" stroke-miterlimit="4"/></g></g><g transform="matrix(1, 0, 0, 1, 47, 27)"><g clip-path="url(#401d1db4aa)"><g fill="#ffffff" fill-opacity="1"><g transform="translate(1.016563, 78.654043)"><g><path d="M 19.734375 10.4375 L 19.734375 0.515625 C 16.847656 -0.0234375 14.144531 -1.003906 11.625 -2.421875 C 9.113281 -3.835938 7 -5.710938 5.28125 -8.046875 C 3.570312 -10.378906 2.445312 -13.144531 1.90625 -16.34375 L 12.34375 -18.59375 C 12.601562 -16.4375 13.304688 -14.644531 14.453125 -13.21875 C 15.597656 -11.789062 17.0625 -10.722656 18.84375 -10.015625 C 20.625 -9.304688 22.601562 -8.953125 24.78125 -8.953125 C 27.957031 -8.953125 30.414062 -9.601562 32.15625 -10.90625 C 33.894531 -12.207031 34.765625 -14.273438 34.765625 -17.109375 C 34.765625 -18.515625 34.359375 -19.738281 33.546875 -20.78125 C 32.742188 -21.832031 31.65625 -22.753906 30.28125 -23.546875 C 28.90625 -24.347656 27.363281 -25.097656 25.65625 -25.796875 C 23.945312 -26.503906 22.171875 -27.238281 20.328125 -28 C 18.492188 -28.769531 16.71875 -29.628906 15 -30.578125 C 13.289062 -31.523438 11.75 -32.640625 10.375 -33.921875 C 9 -35.210938 7.910156 -36.742188 7.109375 -38.515625 C 6.304688 -40.285156 5.90625 -42.375 5.90625 -44.78125 C 5.90625 -47.601562 6.53125 -50.101562 7.78125 -52.28125 C 9.039062 -54.46875 10.71875 -56.257812 12.8125 -57.65625 C 14.90625 -59.0625 17.210938 -60.03125 19.734375 -60.5625 L 19.734375 -70.40625 L 28.265625 -70.40625 L 28.265625 -60.78125 C 31.296875 -60.300781 34.039062 -59.265625 36.5 -57.671875 C 38.957031 -56.085938 40.992188 -53.84375 42.609375 -50.9375 L 33.90625 -45.796875 C 32.863281 -47.742188 31.484375 -49.1875 29.765625 -50.125 C 28.054688 -51.0625 26.210938 -51.53125 24.234375 -51.53125 C 22.816406 -51.53125 21.523438 -51.257812 20.359375 -50.71875 C 19.203125 -50.175781 18.285156 -49.429688 17.609375 -48.484375 C 16.929688 -47.535156 16.59375 -46.441406 16.59375 -45.203125 C 16.59375 -43.867188 16.992188 -42.710938 17.796875 -41.734375 C 18.609375 -40.765625 19.695312 -39.90625 21.0625 -39.15625 C 22.4375 -38.40625 23.976562 -37.6875 25.6875 -37 C 27.40625 -36.320312 29.179688 -35.601562 31.015625 -34.84375 C 32.859375 -34.082031 34.632812 -33.210938 36.34375 -32.234375 C 38.0625 -31.253906 39.601562 -30.09375 40.96875 -28.75 C 42.34375 -27.40625 43.429688 -25.804688 44.234375 -23.953125 C 45.046875 -22.097656 45.453125 -19.914062 45.453125 -17.40625 C 45.453125 -14.851562 45.003906 -12.53125 44.109375 -10.4375 C 43.222656 -8.34375 41.992188 -6.515625 40.421875 -4.953125 C 38.859375 -3.398438 37.035156 -2.144531 34.953125 -1.1875 C 32.867188 -0.226562 30.640625 0.390625 28.265625 0.671875 L 28.265625 10.4375 Z M 19.734375 10.4375 "/></g></g></g></g></g></svg>